# xmcd
#
# Track frame offsets:
#	150
#	15253
#	31747
#	54090
#	73977
#	91870
#	108084
#	126486
#
# Disc length: 1926 seconds
#
# Revision: 0
# Processed by: cddbd v1.4PL0 Copyright (c) Steve Scherf et al.
# Submitted via: EasyCDDAExtractor 5.0.4.1
#
DISCID=59078408
DTITLE=Lina Andersen - Another kind of girl
DYEAR=2003
DGENRE=Country
TTITLE0=Another kind of girl
TTITLE1=Price to pay
TTITLE2=Keep my distance
TTITLE3=Get there before you do
TTITLE4=Sing my song
TTITLE5=Nothing left to say
TTITLE6=My frined
TTITLE7=Goodbye
EXTD=
EXTT0=
EXTT1=
EXTT2=
EXTT3=
EXTT4=
EXTT5=
EXTT6=
EXTT7=
PLAYORDER=
